<svg width="25" height="8" viewBox="0 0 25 8" fill="none" xmlns="http://www.w3.org/2000/svg">
<path d="M9.39828 0.137536L6.15473 7.87392H4.04584L2.45272 1.70774C2.36103 1.32951 2.26934 1.19198 1.98281 1.03152C1.48997 0.767908 0.69914 0.515759 0 0.366762L0.0458453 0.137536H3.44986C3.88539 0.137536 4.27507 0.424069 4.36676 0.928367L5.2149 5.39828L7.30086 0.137536H9.39828ZM17.6848 5.35244C17.6963 3.31232 14.8653 3.19771 14.8768 2.29226C14.8883 2.01719 15.1519 1.7192 15.7249 1.63897C16.0115 1.60458 16.8023 1.5702 17.6963 1.98281L18.0516 0.34384C17.5702 0.17192 16.9513 0 16.1834 0C14.2006 0 12.8138 1.05444 12.8023 2.55587C12.7908 3.66762 13.7994 4.28653 14.5559 4.66476C15.3352 5.04298 15.5989 5.28367 15.5989 5.62751C15.5874 6.14327 14.9799 6.37249 14.4069 6.38395C13.3983 6.39542 12.8138 6.10888 12.3553 5.89112L11.9885 7.58739C12.4585 7.80516 13.318 7.98854 14.212 8C16.3095 8 17.6733 6.95702 17.6848 5.35244ZM22.9112 7.87392H24.7564L23.1404 0.137536H21.4327C21.043 0.137536 20.7221 0.355301 20.5845 0.69914L17.5817 7.86246H19.6791L20.0917 6.70487H22.659L22.9112 7.87392ZM20.6762 5.13467L21.7307 2.23496L22.3381 5.13467H20.6762ZM12.2521 0.137536L10.6017 7.87392H8.60745L10.2579 0.137536H12.2521Z" fill="#2660AC"/>
</svg>
