<svg id="mc" width="14" height="8" viewBox="0 0 14 8" fill="none" xmlns="http://www.w3.org/2000/svg">
<path d="M8.88671 0.857422H5.38672V7.14631H8.88671V0.857422Z" fill="#FF5F00"/>
<path d="M5.60655 4C5.60655 2.72222 6.20655 1.58889 7.12877 0.855557C6.451 0.322224 5.59544 0 4.66211 0C2.451 0 0.662109 1.78889 0.662109 4C0.662109 6.21111 2.451 8 4.66211 8C5.59544 8 6.451 7.67778 7.12877 7.14445C6.20655 6.42222 5.60655 5.27778 5.60655 4Z" fill="#EB001B"/>
<path d="M13.6034 4C13.6034 6.21111 11.8145 8 9.60338 8C8.67005 8 7.81449 7.67778 7.13672 7.14445C8.07005 6.41111 8.65894 5.27778 8.65894 4C8.65894 2.72222 8.05894 1.58889 7.13672 0.855557C7.81449 0.322224 8.67005 0 9.60338 0C11.8145 0 13.6034 1.8 13.6034 4Z" fill="#F79E1B"/>
</svg>
