<svg id="mir" width="29" height="9" viewBox="0 0 29 9" fill="none" xmlns="http://www.w3.org/2000/svg">
<path fill-rule="evenodd" clip-rule="evenodd" d="M8.17822 1.52207e-07V0.0034936C8.17473 0.0034936 7.07429 1.33265e-07 6.78084 1.05153C6.51185 2.01572 5.75377 4.67773 5.73281 4.75109H5.5232C5.5232 4.75109 4.74765 2.02969 4.47516 1.04804C4.18171 -0.00349333 3.07778 1.52207e-07 3.07778 1.52207e-07H0.5625V8H3.07778V3.24891H3.18259H3.28739L4.75464 8H6.50137L7.96861 3.2524H8.17822V8H10.6935V1.52207e-07H8.17822Z" fill="#4DB45E"/>
<path fill-rule="evenodd" clip-rule="evenodd" d="M17.3649 0C17.3649 0 16.6278 0.0663755 16.2819 0.838428L14.5003 4.75109H14.2907V0H11.7754V8H14.1509C14.1509 8 14.923 7.93013 15.2688 7.16157L17.0156 3.24891H17.2252V8H19.7405V0H17.3649Z" fill="#4DB45E"/>
<path fill-rule="evenodd" clip-rule="evenodd" d="M20.8633 3.63477V8.00158H23.3786V5.45136H26.1035C27.2912 5.45136 28.2973 4.69328 28.6711 3.63477H20.8633Z" fill="#4DB45E"/>
<path fill-rule="evenodd" clip-rule="evenodd" d="M26.0989 0H20.5059C20.7853 1.52314 21.9277 2.74585 23.4054 3.1441C23.7408 3.23493 24.0936 3.28384 24.4569 3.28384H28.7679C28.8063 3.10218 28.8238 2.91703 28.8238 2.72489C28.8238 1.21921 27.6045 0 26.0989 0Z" fill="url(#paint0_linear_1_3612)"/>
<defs>
<linearGradient id="paint0_linear_1_3612" x1="20.5065" y1="1.64192" x2="28.8238" y2="1.64192" gradientUnits="userSpaceOnUse">
<stop offset="0.3" stop-color="#00B4E6"/>
<stop offset="1" stop-color="#088CCB"/>
</linearGradient>
</defs>
</svg>
